<svg width="20" height="20" viewBox="0 0 20 20" fill="none" xmlns="http://www.w3.org/2000/svg">
<path d="M10.3655 5.22718L10.7191 5.58074V5.58074L10.3655 5.22718ZM9.99985 5.59283L9.64629 5.94639L9.99985 6.29994L10.3534 5.94639L9.99985 5.59283ZM9.63427 5.22726L9.98783 4.8737L9.63427 5.22726ZM4.51405 5.22726L4.8676 5.58081L4.51405 5.22726ZM4.51405 10.3475L4.16049 10.701H4.16049L4.51405 10.3475ZM4.87962 10.7131L5.23356 11.0662L5.58634 10.7127L5.23317 10.3595L4.87962 10.7131ZM4.87954 10.7131L4.5256 10.36L4.17282 10.7135L4.52599 11.0667L4.87954 10.7131ZM9.99977 15.8334L9.64621 16.1869L9.99977 16.5405L10.3533 16.1869L9.99977 15.8334ZM9.99985 15.8333L10.3529 15.4792L9.99931 15.1267L9.6463 15.4797L9.99985 15.8333ZM10 15.8334L9.64699 16.1875L10.0005 16.54L10.3536 16.187L10 15.8334ZM15.1202 10.7132L15.4738 11.0668L15.8279 10.7127L15.4733 10.3591L15.1202 10.7132ZM15.1201 10.7131L14.7665 10.3595L14.4124 10.7136L14.7671 11.0671L15.1201 10.7131ZM15.4857 10.3474L15.8393 10.701L15.4857 10.3474ZM10.7191 5.58074C11.9377 4.36209 13.9135 4.36209 15.1322 5.58074L15.8393 4.87363C14.2301 3.26445 11.6211 3.26445 10.0119 4.87363L10.7191 5.58074ZM10.3534 5.94639L10.7191 5.58074L10.0119 4.87363L9.6463 5.23928L10.3534 5.94639ZM9.28072 5.58081L9.64629 5.94639L10.3534 5.23928L9.98783 4.8737L9.28072 5.58081ZM4.8676 5.58081C6.08625 4.36216 8.06207 4.36216 9.28072 5.58081L9.98783 4.8737C8.37865 3.26453 5.76967 3.26453 4.16049 4.87371L4.8676 5.58081ZM4.8676 9.99393C3.64895 8.77528 3.64895 6.79946 4.8676 5.58081L4.16049 4.87371C2.55132 6.48288 2.55132 9.09186 4.16049 10.701L4.8676 9.99393ZM5.23317 10.3595L4.8676 9.99393L4.16049 10.701L4.52607 11.0666L5.23317 10.3595ZM5.23348 11.0663L5.23356 11.0662L4.52568 10.3599L4.5256 10.36L5.23348 11.0663ZM10.3533 15.4798L5.23309 10.3596L4.52599 11.0667L9.64621 16.1869L10.3533 15.4798ZM9.6463 15.4797L9.64621 15.4798L10.3533 16.1869L10.3534 16.1868L9.6463 15.4797ZM10.353 15.4794L10.3529 15.4792L9.64683 16.1874L9.64699 16.1875L10.353 15.4794ZM14.7667 10.3597L9.64645 15.4799L10.3536 16.187L15.4738 11.0668L14.7667 10.3597ZM14.7671 11.0671L14.7672 11.0673L15.4733 10.3591L15.4731 10.359L14.7671 11.0671ZM15.1322 9.99386L14.7665 10.3595L15.4736 11.0666L15.8393 10.701L15.1322 9.99386ZM15.1322 5.58074C16.3508 6.79939 16.3508 8.77521 15.1322 9.99386L15.8393 10.701C17.4485 9.09179 17.4485 6.4828 15.8393 4.87363L15.1322 5.58074Z" fill="black"/>
</svg>
