<svg width="24" height="24" viewBox="0 0 24 24" fill="none" xmlns="http://www.w3.org/2000/svg">
<g id="icon">
<path id="Vector" d="M12 19.5C16.1421 19.5 19.5 16.1421 19.5 12C19.5 7.85786 16.1421 4.5 12 4.5C7.85786 4.5 4.5 7.85786 4.5 12C4.5 16.1421 7.85786 19.5 12 19.5Z" stroke="black" stroke-linejoin="round"/>
<path id="Vector_2" d="M12 15.75H12.75" stroke="black" stroke-linejoin="round"/>
<path id="Vector_3" d="M9.81836 9.75043C9.99469 9.24918 10.3427 8.82651 10.8008 8.55728C11.2589 8.28805 11.7975 8.18963 12.3212 8.27946C12.845 8.36929 13.32 8.64157 13.6622 9.04807C14.0044 9.45458 14.1917 9.96907 14.1909 10.5004C14.1909 12.0004 11.9409 12.7504 11.9409 12.7504" stroke="black" stroke-linejoin="round"/>
</g>
</svg>
