<svg width="24" height="24" viewBox="0 0 24 24" fill="none" xmlns="http://www.w3.org/2000/svg">
<g id="icon">
<path id="Vector 11" d="M8.86529 17.8607L8.81401 18.1867C8.71856 18.7935 9.18761 19.3421 9.80186 19.3421H11.1164C11.6021 19.3421 12.0175 18.9932 12.1014 18.5149L12.6789 15.2232H13.7326C15.9929 15.2232 17.9542 13.6645 18.4649 11.4627L18.7016 10.4423C18.966 9.30277 18.1007 8.21388 16.931 8.21388M8.86529 17.8607L9.64392 12.9109H11.0737C13.8564 12.9109 16.2739 10.9976 16.9132 8.28928L16.931 8.21388M8.86529 17.8607H7.87547C6.64314 17.8607 5.704 16.757 5.90126 15.5406L7.42045 6.17229C7.57748 5.20394 8.41366 4.49243 9.39466 4.49243H13.9857C15.938 4.49243 17.3795 6.31376 16.931 8.21388" stroke="black" stroke-linejoin="round"/>
</g>
</svg>
